<?xml version="1.0" encoding="utf-8"?>
<!-- Generator: Adobe Illustrator 19.0.0, SVG Export Plug-In . SVG Version: 6.00 Build 0)  -->
<svg version="1.1" id="Layer_1" xmlns="http://www.w3.org/2000/svg" xmlns:xlink="http://www.w3.org/1999/xlink" x="0px" y="0px"
	 viewBox="0 0 165.8 62.3" style="enable-background:new 0 0 165.8 62.3;" xml:space="preserve">
<style type="text/css">
	.st0{fill:none;}
	.st1{clip-path:url(#SVGID_2_);fill:url(#SVGID_3_);}
	.st2{clip-path:url(#SVGID_5_);fill:url(#SVGID_6_);}
	.st3{fill:#FFFFFF;}
</style>
<polygon points="78.5,46.4 69.7,35.2 69.7,46.4 65.6,46.4 65.6,22.6 69.7,22.6 69.7,33.7 78.5,22.6 83,22.6 73.6,34.2 83.5,46.4 "/>
<path d="M120.9,46.9c-5,0-8.4-3.7-8.4-9.1c0-5.5,3.5-9.3,8.8-9.3c5,0,8.4,3.7,8.4,9.1C129.7,43.1,126.1,46.9,120.9,46.9 M121,31.7
	c-2.8,0-4.6,2.3-4.6,5.9c0,3.6,2,6,4.7,6c2.9,0,4.5-2.3,4.5-5.9C125.7,34.1,123.7,31.7,121,31.7"/>
<path d="M140,46.9c-5,0-8.4-3.7-8.4-9.1c0-5.5,3.5-9.3,8.8-9.3c5,0,8.4,3.7,8.4,9.1C148.7,43.1,145.2,46.9,140,46.9 M140.1,31.7
	c-2.8,0-4.6,2.3-4.6,5.9c0,3.6,2,6,4.7,6c2.9,0,4.5-2.3,4.5-5.9C144.8,34.1,142.8,31.7,140.1,31.7"/>
<polygon points="104.9,29 104.9,29 104.8,29 "/>
<path d="M110.6,28.5c-3.5,0-5.5,2.5-5.7,2.7V29l-3.4,0.8v16.7h3.9V34.5c0.4-0.6,1.9-2.7,5-2.7c0.4,0,1,0.1,1.2,0.1l0.9-3
	C112.4,28.8,111.8,28.5,110.6,28.5"/>
<path d="M94.4,46.4h0.3l3.2-0.7v-10c0-2.3,0-4-1.4-5.4c-1.3-1.3-2.8-1.9-5.4-1.9c-3.9,0-6.1,1.6-6.4,1.9l1.4,2.5
	c0.2-0.1,2.4-1.4,4.7-1.4c1.6,0,2.3,0.3,2.8,0.8c0.5,0.5,0.6,1.1,0.6,2.2v0.7h-0.6c-2.4,0-9.8,0.1-9.8,6.1c0,3.3,2.2,5.5,5.6,5.5
	c2.9,0,4.9-1.5,5.2-1.6V46.4z M94.1,42.6c-0.3,0.1-1.8,1.2-3.9,1.2c-1.7,0-3.1-0.9-3.1-2.6c0-0.8,0.2-1.3,0.7-1.8c1-1,3-1.4,5.4-1.4
	h0.8V42.6z"/>
<path d="M164,30.1c-0.8-0.8-2.2-1.6-4.4-1.6c-2.7,0-4.9,1.6-5.2,1.8V29l-3.4,0.8v16.7h3.9V33.1c0.3-0.2,1.9-1.3,3.9-1.3
	c1.1,0,1.9,0.4,2.2,0.8c0.8,0.8,0.8,2,0.8,4.3v9.5h3.9v-9.8C165.8,34.1,165.8,31.9,164,30.1"/>
<polygon points="43.3,4.9 18.3,13.9 18.3,34.4 "/>
<rect class="st0" width="165.8" height="62.3"/>
<g>
	<defs>
		<polygon id="SVGID_1_" points="18.3,45.4 18.3,62.3 44.4,62.3 24.2,38.4 		"/>
	</defs>
	<clipPath id="SVGID_2_">
		<use xlink:href="#SVGID_1_"  style="overflow:visible;"/>
	</clipPath>
	
		<linearGradient id="SVGID_3_" gradientUnits="userSpaceOnUse" x1="-384.99" y1="294.9071" x2="-383.99" y2="294.9071" gradientTransform="matrix(0 -22.7066 -22.7066 0 6727.6812 -8679.8281)">
		<stop  offset="0" style="stop-color:#2E58A6"/>
		<stop  offset="0.2105" style="stop-color:#2C6FB1"/>
		<stop  offset="0.5163" style="stop-color:#2989BD"/>
		<stop  offset="0.7893" style="stop-color:#2899C4"/>
		<stop  offset="1" style="stop-color:#279FC7"/>
	</linearGradient>
	<rect x="18.3" y="38.4" class="st1" width="26.1" height="23.9"/>
</g>
<polygon points="28.8,32.9 46.1,53.5 56.6,0 "/>
<g>
	<defs>
		<polygon id="SVGID_4_" points="0,20.6 11.2,62.3 11.2,16.5 		"/>
	</defs>
	<clipPath id="SVGID_5_">
		<use xlink:href="#SVGID_4_"  style="overflow:visible;"/>
	</clipPath>
	
		<linearGradient id="SVGID_6_" gradientUnits="userSpaceOnUse" x1="-388.2455" y1="300.0638" x2="-387.2455" y2="300.0638" gradientTransform="matrix(0 -32.2393 -32.2393 0 9679.4756 -12464.4258)">
		<stop  offset="0" style="stop-color:#676E72"/>
		<stop  offset="4.875982e-002" style="stop-color:#6B7276"/>
		<stop  offset="0.4129" style="stop-color:#858C8E"/>
		<stop  offset="0.741" style="stop-color:#959C9D"/>
		<stop  offset="1" style="stop-color:#9AA1A2"/>
	</linearGradient>
	<rect y="16.5" class="st2" width="11.2" height="45.8"/>
</g>
<polygon class="st3" points="43.3,4.8 18.3,34.4 18.3,13.9 11.2,16.5 11.2,62.3 18.3,62.3 18.3,45.4 24.2,38.4 44.4,62.3 44.4,62.3 
	46.1,53.5 28.8,32.9 56.6,0 "/>
</svg>
