<?xml version="1.0" encoding="utf-8"?>
<!-- Generator: Adobe Illustrator 22.0.0, SVG Export Plug-In . SVG Version: 6.00 Build 0)  -->
<svg version="1.1" id="Layer_1" xmlns="http://www.w3.org/2000/svg" xmlns:xlink="http://www.w3.org/1999/xlink" x="0px" y="0px"
	 viewBox="0 0 173.8 65.3" style="enable-background:new 0 0 173.8 65.3;" xml:space="preserve">
<style type="text/css">
	.st0{fill:url(#SVGID_1_);}
	.st1{fill:url(#SVGID_2_);}
	.st2{fill:#FFFFFF;}
</style>
<g>
	<g>
		<path d="M82.3,48.7L73,36.9v11.8h-4.3v-25H73v11.7l9.2-11.7H87l-9.9,12.2l10.3,12.8H82.3z"/>
		<path d="M126.7,49.1c-5.2,0-8.8-3.9-8.8-9.6c0-5.7,3.7-9.7,9.2-9.7c5.2,0,8.8,3.9,8.8,9.6C135.9,45.2,132.2,49.1,126.7,49.1z
			 M126.8,33.2c-2.9,0-4.8,2.4-4.8,6.1c0,3.8,2.1,6.3,4.9,6.3c3,0,4.8-2.4,4.8-6.1C131.7,35.8,129.7,33.2,126.8,33.2z"/>
		<path d="M146.7,49.1c-5.2,0-8.8-3.9-8.8-9.6c0-5.7,3.7-9.7,9.2-9.7c5.2,0,8.8,3.9,8.8,9.6C155.9,45.2,152.1,49.1,146.7,49.1z
			 M146.8,33.2c-2.9,0-4.8,2.4-4.8,6.1c0,3.8,2.1,6.3,4.9,6.3c3,0,4.8-2.4,4.8-6.1C151.7,35.8,149.6,33.2,146.8,33.2z"/>
		<g>
			<polygon points="109.9,30.4 109.9,30.4 109.9,30.4 			"/>
			<path d="M115.9,29.8c-3.7,0-5.8,2.6-6,2.8v-2.3l-3.6,0.8v17.5h4.1V36.1c0.4-0.6,1.9-2.8,5.3-2.8c0.4,0,1,0.1,1.2,0.1l0.9-3.2
				C117.8,30.2,117.2,29.8,115.9,29.8z"/>
		</g>
		<path d="M98.9,48.7h0.3l3.3-0.7V37.4c0-2.4,0-4.2-1.4-5.7c-1.3-1.3-3-1.9-5.7-1.9c-4,0-6.4,1.7-6.7,2l1.4,2.7
			c0.3-0.1,2.5-1.4,4.9-1.4c1.7,0,2.4,0.3,3,0.8c0.5,0.5,0.6,1.1,0.6,2.3v0.7H98c-2.5,0-10.3,0.2-10.3,6.4c0,3.4,2.3,5.8,5.9,5.8
			c3,0,5.1-1.5,5.4-1.7V48.7z M98.6,44.6c-0.3,0.2-1.9,1.2-4,1.2c-1.8,0-3.2-0.9-3.2-2.8c0-0.8,0.2-1.4,0.7-1.9c1-1,3.1-1.4,5.7-1.4
			c0,0,0.4,0,0.9,0V44.6z"/>
		<path d="M171.9,31.5c-0.9-0.9-2.3-1.7-4.6-1.7c-2.8,0-5.1,1.6-5.4,1.9v-1.3l-3.6,0.8v17.5h4.1V34.7c0.3-0.2,2-1.3,4.1-1.3
			c1.2,0,1.9,0.4,2.3,0.8c0.8,0.8,0.9,2.1,0.9,4.5v10h4.1V38.4C173.8,35.8,173.8,33.4,171.9,31.5z"/>
	</g>
</g>
<g>
	<polygon points="45.4,5.1 19.2,14.6 19.2,36.1 	"/>
	<linearGradient id="SVGID_1_" gradientUnits="userSpaceOnUse" x1="32.8462" y1="64.9582" x2="32.8462" y2="41.1626">
		<stop  offset="0" style="stop-color:#2E58A6"/>
		<stop  offset="0.1298" style="stop-color:#2D66AC"/>
		<stop  offset="0.3859" style="stop-color:#2A7FB8"/>
		<stop  offset="0.6245" style="stop-color:#2991C1"/>
		<stop  offset="0.8364" style="stop-color:#279CC6"/>
		<stop  offset="1" style="stop-color:#279FC7"/>
	</linearGradient>
	<polygon class="st0" points="19.2,47.6 19.2,65.3 46.5,65.3 46.5,65.3 25.3,40.3 	"/>
	<polygon points="48.3,56 59.3,0 59.3,0 30.2,34.5 	"/>
	<linearGradient id="SVGID_2_" gradientUnits="userSpaceOnUse" x1="5.8922" y1="54.853" x2="5.8922" y2="21.0675">
		<stop  offset="0" style="stop-color:#666E72"/>
		<stop  offset="0.3453" style="stop-color:#7F8689"/>
		<stop  offset="0.7144" style="stop-color:#939A9B"/>
		<stop  offset="1" style="stop-color:#9BA1A2"/>
	</linearGradient>
	<polygon class="st1" points="0,21.6 11.8,65.3 11.8,17.3 	"/>
	<polygon class="st2" points="30.2,34.5 59.3,0 45.4,5.1 19.2,36.1 19.2,14.6 11.8,17.3 11.8,65.3 19.2,65.3 19.2,47.6 25.3,40.3 
		46.5,65.3 48.3,56 	"/>
</g>
</svg>
