<?xml version="1.0" encoding="utf-8"?>
<!-- Generator: Adobe Illustrator 19.0.0, SVG Export Plug-In . SVG Version: 6.00 Build 0)  -->
<svg version="1.1" id="Layer_1" xmlns="http://www.w3.org/2000/svg" xmlns:xlink="http://www.w3.org/1999/xlink" x="0px" y="0px"
	 viewBox="0 0 15.2 15.2" style="enable-background:new 0 0 15.2 15.2;" xml:space="preserve">
<style type="text/css">
	.st0{fill:#FFFFFF;}
</style>
<g>
	<path class="st0" d="M14.9,13.5l-4.5-4.5c0,0,0,0,0,0c0.7-0.9,1-2.1,1-3.2c0-1.5-0.6-2.9-1.7-4C8.6,0.6,7.2,0,5.7,0
		c-1.5,0-2.9,0.6-4,1.7c-2.2,2.2-2.2,5.8,0,8c1.1,1.1,2.6,1.7,4,1.7c1.1,0,2.3-0.3,3.2-1c0,0,0,0,0,0l4.5,4.5c0.4,0.4,1,0.4,1.4,0
		C15.3,14.5,15.3,13.9,14.9,13.5L14.9,13.5z M2.5,8.9C1.6,8,1.2,6.9,1.2,5.7s0.5-2.3,1.3-3.2c0.8-0.8,2-1.3,3.2-1.3S8,1.6,8.8,2.5
		l0,0c0.9,0.9,1.3,2,1.3,3.2S9.7,8,8.8,8.9c-0.8,0.9-2,1.3-3.2,1.3S3.3,9.7,2.5,8.9L2.5,8.9z"/>
</g>
</svg>
