<?xml version="1.0" encoding="utf-8"?>
<!-- Generator: Adobe Illustrator 19.0.0, SVG Export Plug-In . SVG Version: 6.00 Build 0)  -->
<svg version="1.1" id="Layer_1" xmlns="http://www.w3.org/2000/svg" xmlns:xlink="http://www.w3.org/1999/xlink" x="0px" y="0px"
	 viewBox="0 0 62.9 17.8" style="enable-background:new 0 0 62.9 17.8;" xml:space="preserve">
<style type="text/css">
	.st0{clip-path:url(#SVGID_2_);}
	.st1{clip-path:url(#SVGID_4_);fill:#191919;}
	.st2{clip-path:url(#SVGID_6_);}
	.st3{clip-path:url(#SVGID_8_);fill:#191919;}
	.st4{clip-path:url(#SVGID_10_);}
	.st5{clip-path:url(#SVGID_12_);fill:#191919;}
	.st6{clip-path:url(#SVGID_14_);}
	.st7{clip-path:url(#SVGID_16_);fill:#191919;}
</style>
<g>
	<defs>
		<path id="SVGID_1_" d="M62.9,9.1c0,0,0-0.4,0-0.9c0-0.4,0-0.8-0.1-1.2c0,0,0-0.1,0-0.1h0c-0.6-2.6-2.9-4.5-5.7-4.5
			c-3.2,0-5.8,2.6-5.8,5.8c0,3.2,2.6,5.8,5.8,5.8c0.1,0,0.2,0,0.4,0c0.8,0,2.3-0.1,3.5-1.1l-1.5-2c-0.7,0.5-1.9,0.6-2.3,0.6l-0.1,0
			c-1.5,0-2.8-1-3.2-2.4h6.5v0H62.9z M54,6.9c0.5-1.2,1.7-2.1,3.1-2.1c1.4,0,2.6,0.9,3.1,2.1H54z"/>
	</defs>
	<clipPath id="SVGID_2_">
		<use xlink:href="#SVGID_1_"  style="overflow:visible;"/>
	</clipPath>
	<g class="st0">
		<defs>
			<rect id="SVGID_3_" x="-100.1" y="-28" width="1440" height="74"/>
		</defs>
		<clipPath id="SVGID_4_">
			<use xlink:href="#SVGID_3_"  style="overflow:visible;"/>
		</clipPath>
		<rect x="46.3" y="-2.7" class="st1" width="21.6" height="21.6"/>
	</g>
</g>
<g>
	<defs>
		<path id="SVGID_5_" d="M51.4,2.2h-2.5V0h-2.5v2.2h-1.8h-2h-0.4v6.3c0,1.7-1.3,3-2.9,3c-1.6,0-2.9-1.4-2.9-3V2.2h-2.5v6.3
			c0,3,2.4,5.5,5.3,5.5c1.1,0,2-0.3,2.9-0.9v4.7h2.5V8.5V4.3h1.8V14h2.5V4.4h2.5V2.2z"/>
	</defs>
	<clipPath id="SVGID_6_">
		<use xlink:href="#SVGID_5_"  style="overflow:visible;"/>
	</clipPath>
	<g class="st2">
		<defs>
			<rect id="SVGID_7_" x="-100.1" y="-28" width="1440" height="74"/>
		</defs>
		<clipPath id="SVGID_8_">
			<use xlink:href="#SVGID_7_"  style="overflow:visible;"/>
		</clipPath>
		<rect x="28.9" y="-5" class="st3" width="27.5" height="27.8"/>
	</g>
</g>
<g>
	<defs>
		<path id="SVGID_9_" d="M29.7,3.3c-1-0.7-2.2-1.1-3.5-1.1c-3.2,0-5.9,2.6-5.9,5.9c0,3.3,2.6,5.9,5.9,5.9c1.3,0,2.5-0.4,3.5-1.1V14
			h2.5V2.2h-2.5V3.3z M26.2,11.4c-1.9,0-3.4-1.5-3.4-3.4c0-1.9,1.5-3.4,3.4-3.4c1.9,0,3.4,1.5,3.4,3.4C29.6,9.9,28.1,11.4,26.2,11.4
			z"/>
	</defs>
	<clipPath id="SVGID_10_">
		<use xlink:href="#SVGID_9_"  style="overflow:visible;"/>
	</clipPath>
	<g class="st4">
		<defs>
			<rect id="SVGID_11_" x="-100.1" y="-28" width="1440" height="74"/>
		</defs>
		<clipPath id="SVGID_12_">
			<use xlink:href="#SVGID_11_"  style="overflow:visible;"/>
		</clipPath>
		<rect x="15.3" y="-2.8" class="st5" width="21.8" height="21.8"/>
	</g>
</g>
<g>
	<defs>
		<path id="SVGID_13_" d="M13.6,2.2c-1.6,0-3.1,0.8-4.1,2c-1-1.2-2.5-2-4.1-2c-1.1,0-2.1,0.3-2.9,0.9V2.2H0v11.8h0.1h2.5V7.7
			c0-1.7,1.3-3,2.9-3c1.6,0,2.9,1.4,2.9,3v6.3h2.5V7.7c0-1.7,1.3-3,2.9-3s2.9,1.4,2.9,3v6.3h2.5V7.7C18.9,4.6,16.5,2.2,13.6,2.2"/>
	</defs>
	<clipPath id="SVGID_14_">
		<use xlink:href="#SVGID_13_"  style="overflow:visible;"/>
	</clipPath>
	<g class="st6">
		<defs>
			<rect id="SVGID_15_" x="-100.1" y="-28" width="1440" height="74"/>
		</defs>
		<clipPath id="SVGID_16_">
			<use xlink:href="#SVGID_15_"  style="overflow:visible;"/>
		</clipPath>
		<rect x="-5" y="-2.8" class="st7" width="28.9" height="21.8"/>
	</g>
</g>
</svg>
